<svg xmlns="http://www.w3.org/2000/svg"  viewBox="0 0 100 100" width="100px" height="100px"><path d="M43.5,96c-3.584,0-6.5-2.916-6.5-6.5V62h-4.5c-3.584,0-6.5-2.916-6.5-6.5v-14c0-3.584,2.916-6.5,6.5-6.5H36v-2.143 C36,19.427,47.047,8.5,60.625,8.5c3.595,0,7.673,0.216,11.532,0.608C75.489,9.448,78,12.229,78,15.575V27.5 c0,3.584-2.916,6.5-6.5,6.5h-6.857C64.294,34,64,34.294,64,34.643V35h7.537c1.864,0,3.641,0.802,4.874,2.2 c1.234,1.398,1.808,3.262,1.575,5.11l-1.755,13.998C75.826,59.553,73.054,62,69.782,62H64v27.5c0,3.584-2.916,6.5-6.5,6.5H43.5z" opacity=".35"/><path fill="#f2f2f2" d="M41.5,94c-3.584,0-6.5-2.916-6.5-6.5V60h-4.5c-3.584,0-6.5-2.916-6.5-6.5v-14 c0-3.584,2.916-6.5,6.5-6.5H34v-2.143C34,17.427,45.047,6.5,58.625,6.5c3.595,0,7.673,0.216,11.532,0.608 C73.489,7.448,76,10.229,76,13.575V25.5c0,3.584-2.916,6.5-6.5,6.5h-6.857C62.294,32,62,32.294,62,32.643V33h7.537 c1.864,0,3.641,0.802,4.874,2.2c1.234,1.398,1.808,3.262,1.575,5.11l-1.755,13.998C73.826,57.553,71.054,60,67.782,60H62v27.5 c0,3.584-2.916,6.5-6.5,6.5H41.5z"/><path fill="#70bfff" d="M62.643,25.5H69.5V13.575c-3.46-0.352-7.393-0.582-10.875-0.575C48.615,13,40.5,20.995,40.5,30.857 V39.5h-10v14h11v34h14v-34h12.282l1.755-14H55.5v-6.857C55.5,28.698,58.698,25.5,62.643,25.5z"/><path fill="#40396e" d="M55.5,89h-14c-0.828,0-1.5-0.672-1.5-1.5V55h-9.5c-0.828,0-1.5-0.672-1.5-1.5v-14 c0-0.828,0.672-1.5,1.5-1.5H39v-7.143C39,20.184,47.804,11.5,58.625,11.5c3.354-0.002,7.263,0.2,11.026,0.583 C70.417,12.161,71,12.806,71,13.575V25.5c0,0.828-0.672,1.5-1.5,1.5h-6.857C59.531,27,57,29.531,57,32.643V38h12.537 c0.431,0,0.84,0.185,1.125,0.508c0.284,0.322,0.417,0.752,0.363,1.179l-1.755,14C69.177,54.437,68.538,55,67.782,55H57v32.5 C57,88.328,56.328,89,55.5,89z M43,86h11V53.5c0-0.828,0.672-1.5,1.5-1.5h10.959l1.378-11H55.5c-0.828,0-1.5-0.672-1.5-1.5v-6.857 C54,27.877,57.877,24,62.643,24H68v-9.062c-3.182-0.284-6.405-0.438-9.222-0.438c-0.051,0-0.101,0-0.15,0 C49.458,14.5,42,21.838,42,30.857V39.5c0,0.828-0.672,1.5-1.5,1.5H32v11h9.5c0.828,0,1.5,0.672,1.5,1.5V86z"/></svg>