<svg xmlns="http://www.w3.org/2000/svg"  viewBox="0 0 100 100" width="100px" height="100px"><path d="M32.5,93C20.645,93,11,83.355,11,71.5v-39C11,20.645,20.645,11,32.5,11h39C83.355,11,93,20.645,93,32.5v39 C93,83.355,83.355,93,71.5,93H32.5z" opacity=".35"/><path fill="#f2f2f2" d="M30.5,91C18.645,91,9,81.355,9,69.5v-39C9,18.645,18.645,9,30.5,9h39C81.355,9,91,18.645,91,30.5v39 C91,81.355,81.355,91,69.5,91H30.5z"/><path fill="#d84178" d="M69.5,84.5h-39c-8.284,0-15-6.716-15-15v-39c0-8.284,6.716-15,15-15h39c8.284,0,15,6.716,15,15v39 C84.5,77.784,77.784,84.5,69.5,84.5z"/><path fill="#40396e" d="M69.5,86h-39C21.402,86,14,78.598,14,69.5v-39C14,21.402,21.402,14,30.5,14h39 C78.598,14,86,21.402,86,30.5v39C86,78.598,78.598,86,69.5,86z M30.5,17C23.056,17,17,23.056,17,30.5v39 C17,76.944,23.056,83,30.5,83h39C76.944,83,83,76.944,83,69.5v-39C83,23.056,76.944,17,69.5,17H30.5z"/><g><path fill="#f2f2f2" d="M49.995,23c-7.334,0-8.254,0.032-11.134,0.163c-2.875,0.132-4.837,0.587-6.554,1.255 c-1.776,0.69-3.283,1.612-4.783,3.114c-1.502,1.501-2.425,3.007-3.117,4.783c-0.669,1.718-1.125,3.68-1.255,6.554 c-0.129,2.88-0.163,3.801-0.163,11.135s0.033,8.251,0.163,11.131c0.132,2.875,0.587,4.837,1.255,6.554 c0.69,1.776,1.613,3.283,3.114,4.783c1.5,1.502,3.007,2.427,4.782,3.117c1.718,0.668,3.681,1.123,6.555,1.255 c2.88,0.131,3.8,0.163,11.133,0.163c7.334,0,8.252-0.032,11.132-0.163c2.875-0.132,4.839-0.587,6.557-1.255 c1.775-0.69,3.28-1.615,4.78-3.117c1.502-1.501,2.425-3.007,3.117-4.783c0.664-1.718,1.119-3.68,1.255-6.554 c0.129-2.88,0.163-3.798,0.163-11.132s-0.034-8.254-0.163-11.134c-0.135-2.875-0.591-4.837-1.255-6.554 c-0.692-1.776-1.615-3.283-3.117-4.783c-1.502-1.502-3.004-2.425-4.782-3.114c-1.721-0.668-3.685-1.123-6.559-1.255 C58.24,23.032,57.323,23,49.987,23L49.995,23z M47.573,27.866c0.719-0.001,1.521,0,2.422,0c7.21,0,8.064,0.026,10.911,0.155 c2.633,0.12,4.062,0.56,5.014,0.93c1.26,0.489,2.159,1.074,3.103,2.02c0.945,0.945,1.53,1.845,2.021,3.105 c0.37,0.951,0.81,2.38,0.93,5.012c0.129,2.847,0.158,3.702,0.158,10.908s-0.028,8.062-0.158,10.908 c-0.12,2.633-0.56,4.062-0.93,5.012c-0.489,1.26-1.076,2.157-2.021,3.102c-0.945,0.945-1.842,1.53-3.103,2.02 c-0.951,0.371-2.381,0.81-5.014,0.93c-2.847,0.129-3.702,0.158-10.911,0.158c-7.21,0-8.065-0.028-10.911-0.158 c-2.633-0.122-4.062-0.561-5.014-0.931c-1.26-0.489-2.16-1.075-3.105-2.02s-1.53-1.843-2.021-3.104 c-0.37-0.951-0.81-2.38-0.93-5.012c-0.129-2.847-0.155-3.702-0.155-10.913s0.026-8.062,0.155-10.908 c0.12-2.633,0.56-4.062,0.93-5.014c0.489-1.26,1.076-2.16,2.021-3.105c0.945-0.945,1.845-1.53,3.105-2.021 c0.952-0.371,2.381-0.81,5.014-0.931c2.491-0.113,3.456-0.146,8.489-0.152V27.866z M64.409,32.35c-1.789,0-3.24,1.45-3.24,3.239 c0,1.789,1.451,3.24,3.24,3.24c1.789,0,3.24-1.451,3.24-3.24s-1.451-3.24-3.24-3.24V32.35z M49.995,36.136 c-7.658,0-13.867,6.209-13.867,13.867s6.209,13.864,13.867,13.864c7.658,0,13.865-6.206,13.865-13.864S57.653,36.136,49.995,36.136 L49.995,36.136z M49.995,41.002c4.971,0,9.001,4.03,9.001,9.001c0,4.971-4.03,9.001-9.001,9.001c-4.971,0-9.001-4.03-9.001-9.001 C40.994,45.032,45.024,41.002,49.995,41.002z"/></g></svg>